{
    "asset" : {
        "generator" : "Khronos glTF Blender I/O v1.7.33",
        "version" : "2.0"
    },
    "scene" : 0,
    "scenes" : [
        {
            "name" : "Scene",
            "nodes" : [
                0
            ]
        }
    ],
    "nodes" : [
        {
            "mesh" : 0,
            "name" : "Sphere.001",
            "translation" : [
                -2.1347391605377197,
                0.17760193347930908,
                0.43556761741638184
            ]
        }
    ],
    "meshes" : [
        {
            "name" : "Sphere.001",
            "primitives" : [
                {
                    "attributes" : {
                        "POSITION" : 0,
                        "NORMAL" : 1,
                        "TEXCOORD_0" : 2
                    },
                    "indices" : 3
                }
            ]
        }
    ],
    "accessors" : [
        {
            "bufferView" : 0,
            "componentType" : 5126,
            "count" : 4502,
            "max" : [
                0.9871842861175537,
                0.9975747466087341,
                0.9887213706970215
            ],
            "min" : [
                -0.9872388243675232,
                -0.9448875188827515,
                -0.9872267246246338
            ],
            "type" : "VEC3"
        },
        {
            "bufferView" : 1,
            "componentType" : 5126,
            "count" : 4502,
            "type" : "VEC3"
        },
        {
            "bufferView" : 2,
            "componentType" : 5126,
            "count" : 4502,
            "type" : "VEC2"
        },
        {
            "bufferView" : 3,
            "componentType" : 5123,
            "count" : 19848,
            "type" : "SCALAR"
        }
    ],
    "bufferViews" : [
        {
            "buffer" : 0,
            "byteLength" : 54024,
            "byteOffset" : 0
        },
        {
            "buffer" : 0,
            "byteLength" : 54024,
            "byteOffset" : 54024
        },
        {
            "buffer" : 0,
            "byteLength" : 36016,
            "byteOffset" : 108048
        },
        {
            "buffer" : 0,
            "byteLength" : 39696,
            "byteOffset" : 144064
        }
    ],
    "buffers" : [
        {
            "byteLength" : 183760,
            "uri" : "data:application/octet-stream;base64,"
        }
    ]
}
