{
    "asset" : {
        "generator" : "Khronos glTF Blender I/O v1.7.33",
        "version" : "2.0"
    },
    "scene" : 0,
    "scenes" : [
        {
            "name" : "Scene",
            "nodes" : [
                10
            ]
        }
    ],
    "nodes" : [
        {
            "mesh" : 0,
            "name" : "group_1",
            "translation" : [
                0,
                1.889763355255127,
                -3.514620780944824
            ]
        },
        {
            "name" : "group_1.001",
            "translation" : [
                0,
                1.889763355255127,
                -3.514620780944824
            ]
        },
        {
            "mesh" : 1,
            "name" : "group_2",
            "translation" : [
                5.905510425567627,
                0,
                0.36730483174324036
            ]
        },
        {
            "mesh" : 2,
            "name" : "group_2.001",
            "translation" : [
                5.905510425567627,
                0,
                0.36730483174324036
            ]
        },
        {
            "mesh" : 3,
            "name" : "group_3",
            "rotation" : [
                -1,
                0,
                0,
                4.371139183945161e-08
            ],
            "scale" : [
                -0.9999998211860657,
                -0.9999998211860657,
                -0.9999998211860657
            ],
            "translation" : [
                5.905510425567627,
                0,
                0.36730483174324036
            ]
        },
        {
            "mesh" : 4,
            "name" : "group_3.001",
            "rotation" : [
                -1,
                0,
                0,
                4.371139183945161e-08
            ],
            "scale" : [
                -0.9999998211860657,
                -0.9999998211860657,
                -0.9999998211860657
            ],
            "translation" : [
                5.905510425567627,
                0,
                0.36730483174324036
            ]
        },
        {
            "mesh" : 5,
            "name" : "group_4"
        },
        {
            "mesh" : 6,
            "name" : "Image Plane Vihkiruusu_135_maripedia.png",
            "rotation" : [
                0,
                -1,
                0,
                1.6292067073209182e-07
            ],
            "scale" : [
                38.30241012573242,
                7.660481929779053,
                38.30241012573242
            ],
            "translation" : [
                -6.4866461753845215,
                0.4215598404407501,
                0.2019241452217102
            ]
        },
        {
            "children" : [
                0,
                1,
                2,
                3,
                4,
                5,
                6,
                7
            ],
            "mesh" : 7,
            "name" : "group_0.016",
            "translation" : [
                -6.637218952178955,
                72.40626525878906,
                -44.124141693115234
            ]
        },
        {
            "mesh" : 8,
            "name" : "group_0.017",
            "translation" : [
                -6.637218952178955,
                72.40626525878906,
                -44.124141693115234
            ]
        },
        {
            "children" : [
                8,
                9
            ],
            "name" : "SketchUp",
            "rotation" : [
                0,
                0.7071068286895752,
                0.7071068286895752,
                -1.461109633282831e-07
            ],
            "scale" : [
                0.02539999783039093,
                0.02539999783039093,
                0.02539999783039093
            ],
            "translation" : [
                -0.021243587136268616,
                1.505925178527832,
                -1.84099280834198
            ]
        }
    ],
    "materials" : [
        {
            "doubleSided" : true,
            "name" : "Vihkiruusu_135_maripedia.png",
            "pbrMetallicRoughness" : {
                "baseColorTexture" : {
                    "index" : 0
                },
                "metallicFactor" : 0,
                "roughnessFactor" : 0.5
            }
        },
        {
            "doubleSided" : true,
            "name" : "black_wood",
            "pbrMetallicRoughness" : {
                "baseColorTexture" : {
                    "index" : 1
                },
                "metallicFactor" : 0,
                "roughnessFactor" : 0.5
            }
        }
    ],
    "meshes" : [
        {
            "name" : "ID4",
            "primitives" : [
                {
                    "attributes" : {
                        "POSITION" : 0,
                        "NORMAL" : 1,
                        "TEXCOORD_0" : 2
                    },
                    "indices" : 3,
                    "material" : 0
                }
            ]
        },
        {
            "name" : "ID121",
            "primitives" : [
                {
                    "attributes" : {
                        "POSITION" : 4,
                        "NORMAL" : 5,
                        "TEXCOORD_0" : 6
                    },
                    "indices" : 7,
                    "material" : 1
                }
            ]
        },
        {
            "name" : "ID121.001",
            "primitives" : [
                {
                    "attributes" : {
                        "POSITION" : 8,
                        "NORMAL" : 9,
                        "TEXCOORD_0" : 10
                    },
                    "indices" : 11,
                    "material" : 0
                }
            ]
        },
        {
            "name" : "ID128",
            "primitives" : [
                {
                    "attributes" : {
                        "POSITION" : 12,
                        "NORMAL" : 13,
                        "TEXCOORD_0" : 14
                    },
                    "indices" : 7,
                    "material" : 1
                }
            ]
        },
        {
            "name" : "ID128.001",
            "primitives" : [
                {
                    "attributes" : {
                        "POSITION" : 15,
                        "NORMAL" : 16,
                        "TEXCOORD_0" : 17
                    },
                    "indices" : 11,
                    "material" : 0
                }
            ]
        },
        {
            "name" : "ID135",
            "primitives" : [
                {
                    "attributes" : {
                        "POSITION" : 18,
                        "NORMAL" : 19,
                        "TEXCOORD_0" : 20
                    },
                    "indices" : 21,
                    "material" : 1
                }
            ]
        },
        {
            "name" : "Plane",
            "primitives" : [
                {
                    "attributes" : {
                        "POSITION" : 22,
                        "NORMAL" : 23,
                        "TEXCOORD_0" : 24
                    },
                    "indices" : 25,
                    "material" : 0
                }
            ]
        },
        {
            "name" : "ID114",
            "primitives" : [
                {
                    "attributes" : {
                        "POSITION" : 26,
                        "NORMAL" : 27,
                        "TEXCOORD_0" : 28
                    },
                    "indices" : 29,
                    "material" : 1
                }
            ]
        },
        {
            "name" : "ID114.001",
            "primitives" : [
                {
                    "attributes" : {
                        "POSITION" : 30,
                        "NORMAL" : 31,
                        "TEXCOORD_0" : 32
                    },
                    "indices" : 7,
                    "material" : 0
                }
            ]
        }
    ],
    "textures" : [
        {
            "sampler" : 0,
            "source" : 0
        },
        {
            "sampler" : 0,
            "source" : 1
        }
    ],
    "images" : [
        {
            "bufferView" : 4,
            "mimeType" : "image/png",
            "name" : "Vihkiruusu_135_maripedia"
        },
        {
            "bufferView" : 9,
            "mimeType" : "image/jpeg",
            "name" : "black_wood"
        }
    ],
    "accessors" : [
        {
            "bufferView" : 0,
            "componentType" : 5126,
            "count" : 124,
            "max" : [
                14.169851303100586,
                1.1920928955078125e-06,
                3.8819267749786377
            ],
            "min" : [
                -2.3588290214538574,
                0,
                -11.83970832824707
            ],
            "type" : "VEC3"
        },
        {
            "bufferView" : 1,
            "componentType" : 5126,
            "count" : 124,
            "type" : "VEC3"
        },
        {
            "bufferView" : 2,
            "componentType" : 5126,
            "count" : 124,
            "type" : "VEC2"
        },
        {
            "bufferView" : 3,
            "componentType" : 5123,
            "count" : 309,
            "type" : "SCALAR"
        },
        {
            "bufferView" : 5,
            "componentType" : 5126,
            "count" : 12,
            "max" : [
                8.264341354370117,
                1.8897637128829956,
                0
            ],
            "min" : [
                0,
                0,
                -5.228681564331055
            ],
            "type" : "VEC3"
        },
        {
            "bufferView" : 6,
            "componentType" : 5126,
            "count" : 12,
            "type" : "VEC3"
        },
        {
            "bufferView" : 7,
            "componentType" : 5126,
            "count" : 12,
            "type" : "VEC2"
        },
        {
            "bufferView" : 8,
            "componentType" : 5123,
            "count" : 18,
            "type" : "SCALAR"
        },
        {
            "bufferView" : 10,
            "componentType" : 5126,
            "count" : 4,
            "max" : [
                8.264341354370117,
                1.8897637128829956,
                0
            ],
            "min" : [
                0,
                0,
                -4.95860481262207
            ],
            "type" : "VEC3"
        },
        {
            "bufferView" : 11,
            "componentType" : 5126,
            "count" : 4,
            "type" : "VEC3"
        },
        {
            "bufferView" : 12,
            "componentType" : 5126,
            "count" : 4,
            "type" : "VEC2"
        },
        {
            "bufferView" : 13,
            "componentType" : 5123,
            "count" : 6,
            "type" : "SCALAR"
        },
        {
            "bufferView" : 14,
            "componentType" : 5126,
            "count" : 12,
            "max" : [
                8.264341354370117,
                1.8897637128829956,
                0
            ],
            "min" : [
                0,
                0,
                -5.228681564331055
            ],
            "type" : "VEC3"
        },
        {
            "bufferView" : 15,
            "componentType" : 5126,
            "count" : 12,
            "type" : "VEC3"
        },
        {
            "bufferView" : 16,
            "componentType" : 5126,
            "count" : 12,
            "type" : "VEC2"
        },
        {
            "bufferView" : 17,
            "componentType" : 5126,
            "count" : 4,
            "max" : [
                8.264341354370117,
                1.8897637128829956,
                0
            ],
            "min" : [
                0,
                0,
                -4.95860481262207
            ],
            "type" : "VEC3"
        },
        {
            "bufferView" : 18,
            "componentType" : 5126,
            "count" : 4,
            "type" : "VEC3"
        },
        {
            "bufferView" : 19,
            "componentType" : 5126,
            "count" : 4,
            "type" : "VEC2"
        },
        {
            "bufferView" : 20,
            "componentType" : 5126,
            "count" : 18,
            "max" : [
                11.811022758483887,
                0.31496062874794006,
                0
            ],
            "min" : [
                0,
                0,
                -3.543307304382324
            ],
            "type" : "VEC3"
        },
        {
            "bufferView" : 21,
            "componentType" : 5126,
            "count" : 18,
            "type" : "VEC3"
        },
        {
            "bufferView" : 22,
            "componentType" : 5126,
            "count" : 18,
            "type" : "VEC2"
        },
        {
            "bufferView" : 23,
            "componentType" : 5123,
            "count" : 24,
            "type" : "SCALAR"
        },
        {
            "bufferView" : 24,
            "componentType" : 5126,
            "count" : 5,
            "max" : [
                -0.17131632566452026,
                0,
                0.4038023352622986
            ],
            "min" : [
                -0.4750332832336426,
                0,
                -2.9802322387695312e-08
            ],
            "type" : "VEC3"
        },
        {
            "bufferView" : 25,
            "componentType" : 5126,
            "count" : 5,
            "type" : "VEC3"
        },
        {
            "bufferView" : 26,
            "componentType" : 5126,
            "count" : 5,
            "type" : "VEC2"
        },
        {
            "bufferView" : 27,
            "componentType" : 5123,
            "count" : 9,
            "type" : "SCALAR"
        },
        {
            "bufferView" : 28,
            "componentType" : 5126,
            "count" : 329,
            "max" : [
                11.81102180480957,
                1.8897637128829956,
                -3.5433061122894287
            ],
            "min" : [
                -5.960464477539063e-08,
                0,
                -15.354329109191895
            ],
            "type" : "VEC3"
        },
        {
            "bufferView" : 29,
            "componentType" : 5126,
            "count" : 329,
            "type" : "VEC3"
        },
        {
            "bufferView" : 30,
            "componentType" : 5126,
            "count" : 329,
            "type" : "VEC2"
        },
        {
            "bufferView" : 31,
            "componentType" : 5123,
            "count" : 495,
            "type" : "SCALAR"
        },
        {
            "bufferView" : 32,
            "componentType" : 5126,
            "count" : 12,
            "max" : [
                11.81102180480957,
                1.889763593673706,
                -3.5433061122894287
            ],
            "min" : [
                -5.960464477539063e-08,
                0,
                -15.354329109191895
            ],
            "type" : "VEC3"
        },
        {
            "bufferView" : 33,
            "componentType" : 5126,
            "count" : 12,
            "type" : "VEC3"
        },
        {
            "bufferView" : 34,
            "componentType" : 5126,
            "count" : 12,
            "type" : "VEC2"
        }
    ],
    "bufferViews" : [
        {
            "buffer" : 0,
            "byteLength" : 1488,
            "byteOffset" : 0
        },
        {
            "buffer" : 0,
            "byteLength" : 1488,
            "byteOffset" : 1488
        },
        {
            "buffer" : 0,
            "byteLength" : 992,
            "byteOffset" : 2976
        },
        {
            "buffer" : 0,
            "byteLength" : 618,
            "byteOffset" : 3968
        },
        {
            "buffer" : 0,
            "byteLength" : 793188,
            "byteOffset" : 4588
        },
        {
            "buffer" : 0,
            "byteLength" : 144,
            "byteOffset" : 797776
        },
        {
            "buffer" : 0,
            "byteLength" : 144,
            "byteOffset" : 797920
        },
        {
            "buffer" : 0,
            "byteLength" : 96,
            "byteOffset" : 798064
        },
        {
            "buffer" : 0,
            "byteLength" : 36,
            "byteOffset" : 798160
        },
        {
            "buffer" : 0,
            "byteLength" : 108365,
            "byteOffset" : 798196
        },
        {
            "buffer" : 0,
            "byteLength" : 48,
            "byteOffset" : 906564
        },
        {
            "buffer" : 0,
            "byteLength" : 48,
            "byteOffset" : 906612
        },
        {
            "buffer" : 0,
            "byteLength" : 32,
            "byteOffset" : 906660
        },
        {
            "buffer" : 0,
            "byteLength" : 12,
            "byteOffset" : 906692
        },
        {
            "buffer" : 0,
            "byteLength" : 144,
            "byteOffset" : 906704
        },
        {
            "buffer" : 0,
            "byteLength" : 144,
            "byteOffset" : 906848
        },
        {
            "buffer" : 0,
            "byteLength" : 96,
            "byteOffset" : 906992
        },
        {
            "buffer" : 0,
            "byteLength" : 48,
            "byteOffset" : 907088
        },
        {
            "buffer" : 0,
            "byteLength" : 48,
            "byteOffset" : 907136
        },
        {
            "buffer" : 0,
            "byteLength" : 32,
            "byteOffset" : 907184
        },
        {
            "buffer" : 0,
            "byteLength" : 216,
            "byteOffset" : 907216
        },
        {
            "buffer" : 0,
            "byteLength" : 216,
            "byteOffset" : 907432
        },
        {
            "buffer" : 0,
            "byteLength" : 144,
            "byteOffset" : 907648
        },
        {
            "buffer" : 0,
            "byteLength" : 48,
            "byteOffset" : 907792
        },
        {
            "buffer" : 0,
            "byteLength" : 60,
            "byteOffset" : 907840
        },
        {
            "buffer" : 0,
            "byteLength" : 60,
            "byteOffset" : 907900
        },
        {
            "buffer" : 0,
            "byteLength" : 40,
            "byteOffset" : 907960
        },
        {
            "buffer" : 0,
            "byteLength" : 18,
            "byteOffset" : 908000
        },
        {
            "buffer" : 0,
            "byteLength" : 3948,
            "byteOffset" : 908020
        },
        {
            "buffer" : 0,
            "byteLength" : 3948,
            "byteOffset" : 911968
        },
        {
            "buffer" : 0,
            "byteLength" : 2632,
            "byteOffset" : 915916
        },
        {
            "buffer" : 0,
            "byteLength" : 990,
            "byteOffset" : 918548
        },
        {
            "buffer" : 0,
            "byteLength" : 144,
            "byteOffset" : 919540
        },
        {
            "buffer" : 0,
            "byteLength" : 144,
            "byteOffset" : 919684
        },
        {
            "buffer" : 0,
            "byteLength" : 96,
            "byteOffset" : 919828
        }
    ],
    "samplers" : [
        {
            "magFilter" : 9729,
            "minFilter" : 9987
        }
    ],
    "buffers" : [
        {
            "byteLength" : 919924,
            "uri" : "data:application/octet-stream;base64,"
        }
    ]
}
