{
    "asset" : {
        "generator" : "Khronos glTF Blender I/O v1.7.33",
        "version" : "2.0"
    },
    "scene" : 0,
    "scenes" : [
        {
            "name" : "Scene",
            "nodes" : [
                0
            ]
        }
    ],
    "nodes" : [
        {
            "mesh" : 0,
            "name" : "Cube"
        }
    ],
    "materials" : [
        {
            "doubleSided" : true,
            "emissiveFactor" : [
                1,
                1,
                1
            ],
            "emissiveTexture" : {
                "index" : 0
            },
            "name" : "Material.001",
            "normalTexture" : {
                "index" : 1
            },
            "pbrMetallicRoughness" : {
                "baseColorTexture" : {
                    "index" : 2
                },
                "metallicRoughnessTexture" : {
                    "index" : 3
                }
            }
        }
    ],
    "meshes" : [
        {
            "name" : "Cube.001",
            "primitives" : [
                {
                    "attributes" : {
                        "POSITION" : 0,
                        "NORMAL" : 1,
                        "TEXCOORD_0" : 2
                    },
                    "indices" : 3,
                    "material" : 0
                }
            ]
        }
    ],
    "textures" : [
        {
            "sampler" : 0,
            "source" : 0
        },
        {
            "sampler" : 0,
            "source" : 1
        },
        {
            "sampler" : 0,
            "source" : 2
        },
        {
            "sampler" : 0,
            "source" : 3
        }
    ],
    "images" : [
        {
            "bufferView" : 4,
            "mimeType" : "image/png",
            "name" : "Untitled"
        },
        {
            "bufferView" : 5,
            "mimeType" : "image/png",
            "name" : "Material_Normal"
        },
        {
            "bufferView" : 6,
            "mimeType" : "image/png",
            "name" : "Material_Base_Color"
        },
        {
            "bufferView" : 7,
            "mimeType" : "image/png",
            "name" : "Material_Metallic-Material_Roughness"
        }
    ],
    "accessors" : [
        {
            "bufferView" : 0,
            "componentType" : 5126,
            "count" : 1651,
            "max" : [
                0.8395062685012817,
                0.8395062685012817,
                0.8395062685012817
            ],
            "min" : [
                -0.8395062685012817,
                -0.8395062685012817,
                -0.8395062685012817
            ],
            "type" : "VEC3"
        },
        {
            "bufferView" : 1,
            "componentType" : 5126,
            "count" : 1651,
            "type" : "VEC3"
        },
        {
            "bufferView" : 2,
            "componentType" : 5126,
            "count" : 1651,
            "type" : "VEC2"
        },
        {
            "bufferView" : 3,
            "componentType" : 5123,
            "count" : 9216,
            "type" : "SCALAR"
        }
    ],
    "bufferViews" : [
        {
            "buffer" : 0,
            "byteLength" : 19812,
            "byteOffset" : 0
        },
        {
            "buffer" : 0,
            "byteLength" : 19812,
            "byteOffset" : 19812
        },
        {
            "buffer" : 0,
            "byteLength" : 13208,
            "byteOffset" : 39624
        },
        {
            "buffer" : 0,
            "byteLength" : 18432,
            "byteOffset" : 52832
        },
        {
            "buffer" : 0,
            "byteLength" : 35405,
            "byteOffset" : 71264
        },
        {
            "buffer" : 0,
            "byteLength" : 443648,
            "byteOffset" : 106672
        },
        {
            "buffer" : 0,
            "byteLength" : 265383,
            "byteOffset" : 550320
        },
        {
            "buffer" : 0,
            "byteLength" : 50416,
            "byteOffset" : 815704
        }
    ],
    "samplers" : [
        {
            "magFilter" : 9729,
            "minFilter" : 9987
        }
    ],
    "buffers" : [
        {
            "byteLength" : 866120,
            "uri" : "data:application/octet-stream;base64,"
        }
    ]
}
