{
    "asset" : {
        "generator" : "Khronos glTF Blender I/O v1.7.33",
        "version" : "2.0"
    },
    "scene" : 0,
    "scenes" : [
        {
            "name" : "Scene",
            "nodes" : [
                0
            ]
        }
    ],
    "nodes" : [
        {
            "mesh" : 0,
            "name" : "applied_copy",
            "translation" : [
                0,
                0,
                -2.299999952316284
            ]
        }
    ],
    "meshes" : [
        {
            "name" : "Cube.004",
            "primitives" : [
                {
                    "attributes" : {
                        "POSITION" : 0,
                        "NORMAL" : 1,
                        "TEXCOORD_0" : 2
                    },
                    "indices" : 3
                }
            ]
        }
    ],
    "accessors" : [
        {
            "bufferView" : 0,
            "componentType" : 5126,
            "count" : 16422,
            "max" : [
                0.972107470035553,
                0.09662165492773056,
                0.9732262492179871
            ],
            "min" : [
                -0.9718273282051086,
                -0.9082106947898865,
                -0.9732728600502014
            ],
            "type" : "VEC3"
        },
        {
            "bufferView" : 1,
            "componentType" : 5126,
            "count" : 16422,
            "type" : "VEC3"
        },
        {
            "bufferView" : 2,
            "componentType" : 5126,
            "count" : 16422,
            "type" : "VEC2"
        },
        {
            "bufferView" : 3,
            "componentType" : 5123,
            "count" : 90240,
            "type" : "SCALAR"
        }
    ],
    "bufferViews" : [
        {
            "buffer" : 0,
            "byteLength" : 197064,
            "byteOffset" : 0
        },
        {
            "buffer" : 0,
            "byteLength" : 197064,
            "byteOffset" : 197064
        },
        {
            "buffer" : 0,
            "byteLength" : 131376,
            "byteOffset" : 394128
        },
        {
            "buffer" : 0,
            "byteLength" : 180480,
            "byteOffset" : 525504
        }
    ],
    "buffers" : [
        {
            "byteLength" : 705984,
            "uri" : "data:application/octet-stream;base64,"
        }
    ]
}
