{
    "asset" : {
        "generator" : "Khronos glTF Blender I/O v1.7.33",
        "version" : "2.0"
    },
    "scene" : 0,
    "scenes" : [
        {
            "name" : "Scene",
            "nodes" : [
                0
            ]
        }
    ],
    "nodes" : [
        {
            "mesh" : 0,
            "name" : "applied_copy",
            "translation" : [
                0,
                0,
                -2.299999952316284
            ]
        }
    ],
    "materials" : [
        {
            "doubleSided" : true,
            "name" : "Material",
            "normalTexture" : {
                "index" : 0
            },
            "pbrMetallicRoughness" : {
                "baseColorTexture" : {
                    "index" : 1
                },
                "metallicFactor" : 0.05000000074505806,
                "roughnessFactor" : 0.6318181753158569
            }
        }
    ],
    "meshes" : [
        {
            "name" : "Cube.004",
            "primitives" : [
                {
                    "attributes" : {
                        "POSITION" : 0,
                        "NORMAL" : 1,
                        "TEXCOORD_0" : 2
                    },
                    "indices" : 3,
                    "material" : 0
                }
            ]
        }
    ],
    "textures" : [
        {
            "sampler" : 0,
            "source" : 0
        },
        {
            "sampler" : 0,
            "source" : 1
        }
    ],
    "images" : [
        {
            "bufferView" : 4,
            "mimeType" : "image/png",
            "name" : "Material Normal"
        },
        {
            "bufferView" : 5,
            "mimeType" : "image/png",
            "name" : "Lokki_161_maripedia"
        }
    ],
    "accessors" : [
        {
            "bufferView" : 0,
            "componentType" : 5126,
            "count" : 15042,
            "max" : [
                0.972107470035553,
                0.09662165492773056,
                0.9732262492179871
            ],
            "min" : [
                -0.9718273282051086,
                -0.9082106947898865,
                -0.9732728600502014
            ],
            "type" : "VEC3"
        },
        {
            "bufferView" : 1,
            "componentType" : 5126,
            "count" : 15042,
            "type" : "VEC3"
        },
        {
            "bufferView" : 2,
            "componentType" : 5126,
            "count" : 15042,
            "type" : "VEC2"
        },
        {
            "bufferView" : 3,
            "componentType" : 5123,
            "count" : 90240,
            "type" : "SCALAR"
        }
    ],
    "bufferViews" : [
        {
            "buffer" : 0,
            "byteLength" : 180504,
            "byteOffset" : 0
        },
        {
            "buffer" : 0,
            "byteLength" : 180504,
            "byteOffset" : 180504
        },
        {
            "buffer" : 0,
            "byteLength" : 120336,
            "byteOffset" : 361008
        },
        {
            "buffer" : 0,
            "byteLength" : 180480,
            "byteOffset" : 481344
        },
        {
            "buffer" : 0,
            "byteLength" : 142941,
            "byteOffset" : 661824
        },
        {
            "buffer" : 0,
            "byteLength" : 99087,
            "byteOffset" : 804768
        }
    ],
    "samplers" : [
        {
            "magFilter" : 9729,
            "minFilter" : 9987
        }
    ],
    "buffers" : [
        {
            "byteLength" : 903856,
            "uri" : "data:application/octet-stream;base64,"
        }
    ]
}
